<?xml version="1.0" encoding="UTF-8" standalone="no"?>
<svg
   width="48.818592mm"
   height="17.856199mm"
   viewBox="0 0 48.818592 17.856199"
   version="1.1"
   id="svg882"
   xmlns="http://www.w3.org/2000/svg"
   xmlns:svg="http://www.w3.org/2000/svg">
  <defs
     id="defs879" />
  <g
     id="layer1"
     transform="translate(-42.508645,11.406539)">
    <g
       aria-label="Mialt"
       id="text2455"
       style="font-size:10.5833px;line-height:1.25;stroke-width:0.264583"
       transform="translate(-5.9177915,-105.7368)">
      <path
         d="m 60.618437,94.609661 c -1.27,3.302 -2.4892,6.603999 -3.683,9.956799 l -3.8608,-9.880599 h -3.2766 l -1.3716,17.221199 3.7084,0.2794 0.6604,-8.001 2.4384,6.2738 3.4798,-0.0254 2.413,-6.5024 0.6096,8.2296 3.7338,-0.2794 -1.3208,-17.271999 z"
         style="font-size:25.4px;font-family:'Mighty Rooster';-inkscape-font-specification:'Mighty Rooster';fill:#e3d6b3"
         id="path9115" />
      <path
         d="m 66.358794,101.53116 0.2286,10.4013 3.7084,-0.0762 c -0.0762,-3.9624 -0.1524,-7.9756 -0.2286,-11.963399 z"
         style="font-size:25.4px;font-family:'Mighty Rooster';-inkscape-font-specification:'Mighty Rooster';fill:#e3d6b3"
         id="path9117" />
      <path
         d="m 80.658981,99.410261 c -0.9398,-0.5334 -2.0066,-0.8128 -3.0734,-0.8636 -0.9398,0 -1.9304,0.1778 -2.794,0.5842 -2.413,1.041399 -3.937,3.606799 -4.0132,6.248399 -0.0508,3.3528 2.7432,6.35 5.969,6.6802 1.2954,0.1524 2.5654,-0.1524 3.6576,-0.762 l -0.0508,0.762 3.7338,0.0762 0.2794,-13.461999 c -1.2192,-0.0508 -2.4892,-0.0508 -3.7084,-0.0762 z m -0.4572,6.172199 c -0.1016,1.1938 -0.889,2.286 -2.0574,2.6416 -1.8034,0.5842 -3.7084,-1.0414 -3.6322,-2.7686 0.0254,-0.508 0.1524,-0.9906 0.3302,-1.4224 0.4572,-1.0414 1.5748,-1.7272 2.6924,-1.7272 0.6096,0 1.2446,0.254 1.7018,0.6858 0.6858,0.6858 1.0414,1.6764 0.9652,2.5908 z"
         style="font-size:25.4px;font-family:'Mighty Rooster';-inkscape-font-specification:'Mighty Rooster';fill:#e3d6b3"
         id="path9119" />
      <path
         d="m 85.35792,95.566394 0.2286,16.315266 3.7338,-0.0508 c -0.0762,-5.7658 -0.1778,-11.5824 -0.254,-17.373599 z"
         style="font-size:25.4px;font-family:'Mighty Rooster';-inkscape-font-specification:'Mighty Rooster';fill:#e3d6b3"
         id="path9121" />
      <path
         d="m 95.249345,107.95094 c -0.254,-0.254 -0.487287,-0.50285 -0.487287,-0.88385 l -0.175562,-5.06603 h 2.658533 v -3.733799 h -2.734733 l -0.0508,-3.937 -3.7338,1.134533 0.0762,2.802467 0.0762,3.733799 0.1016,5.0546 c -0.0254,1.397 0.4826,2.8194 1.4732,3.7592 0.8382,0.7874 2.032,1.1684 3.175,1.143 l 0.489577,-0.003 1.098835,-0.0393 -0.008,-3.73109 c -0.355313,0.0169 -1.193775,0.0925 -1.958935,-0.23353 z"
         style="font-size:25.4px;font-family:'Mighty Rooster';-inkscape-font-specification:'Mighty Rooster';fill:#e3d6b3"
         id="path9123" />
    </g>
  </g>
</svg>
